<?xml version="1.0" encoding="utf-8"?>
<!-- Generator: Adobe Illustrator 16.2.0, SVG Export Plug-In . SVG Version: 6.00 Build 0)  -->
<!DOCTYPE svg PUBLIC "-//W3C//DTD SVG 1.1//EN" "http://www.w3.org/Graphics/SVG/1.1/DTD/svg11.dtd">
<svg version="1.1" id="Layer_1" xmlns="http://www.w3.org/2000/svg" xmlns:xlink="http://www.w3.org/1999/xlink" x="0px" y="0px"
	 width="30px" height="30px" viewBox="0 0 30 30" enable-background="new 0 0 30 30" xml:space="preserve">
<g>
	<path d="M8,14c-0.552,0-1-0.448-1-1c0-3.309,2.691-6,6-6c0.552,0,1,0.448,1,1s-0.448,1-1,1c-2.206,0-4,1.794-4,4
		C9,13.552,8.552,14,8,14z"/>
	<path d="M25.139,20.978l-4.052-4.053C21.666,15.737,22,14.408,22,13c0-4.962-4.038-9-9-9s-9,4.038-9,9s4.038,9,9,9
		c1.408,0,2.737-0.334,3.925-0.914l4.053,4.053c0.574,0.573,1.327,0.859,2.08,0.859c0.754,0,1.507-0.287,2.081-0.86
		C26.285,23.991,26.285,22.125,25.139,20.978z M6,13c0-3.86,3.14-7,7-7s7,3.14,7,7s-3.14,7-7,7S6,16.86,6,13z M23.725,23.725
		c-0.367,0.367-0.964,0.368-1.333,0l-3.734-3.734c0.489-0.397,0.936-0.844,1.333-1.333l3.734,3.735
		C24.091,22.759,24.091,23.357,23.725,23.725z"/>
</g>
</svg>
